<mxfile host="www.draw.io" modified="2019-11-12T11:25:04.230Z" agent="Mozilla/5.0 (X11; Ubuntu; Linux x86_64; rv:70.0) Gecko/20100101 Firefox/70.0" etag="slDpz6GT-eCbICXAlIb9" version="12.2.4" type="github" pages="1">
  <diagram id="saa-o_RgMr1QN5M-2xFA" name="Page-1">
    <mxGraphModel dx="1581" dy="762" grid="1" gridSize="10" guides="1" tooltips="1" connect="1" arrows="1" fold="1" page="1" pageScale="1" pageWidth="827" pageHeight="1169" math="0" shadow="0">
      <root>
        <mxCell id="0"/>
        <mxCell id="1" parent="0"/>
        <mxCell id="_agyN7dg8QGKkC9jqSgM-10" value="ImageProcess" style="html=1;" parent="1" vertex="1">
          <mxGeometry x="400" y="70" width="110" height="50" as="geometry"/>
        </mxCell>
        <mxCell id="_agyN7dg8QGKkC9jqSgM-11" value="KinectVision" style="html=1;" parent="1" vertex="1">
          <mxGeometry x="80" y="240" width="110" height="50" as="geometry"/>
        </mxCell>
        <mxCell id="_agyN7dg8QGKkC9jqSgM-12" value="CannyFilter" style="html=1;" parent="1" vertex="1">
          <mxGeometry x="400" y="240" width="110" height="50" as="geometry"/>
        </mxCell>
        <mxCell id="_agyN7dg8QGKkC9jqSgM-13" value="MonoVision" style="html=1;" parent="1" vertex="1">
          <mxGeometry x="240" y="240" width="110" height="50" as="geometry"/>
        </mxCell>
        <mxCell id="_agyN7dg8QGKkC9jqSgM-27" value="MonoDisplay" style="html=1;" parent="1" vertex="1">
          <mxGeometry x="320" y="310" width="110" height="50" as="geometry"/>
        </mxCell>
        <mxCell id="_agyN7dg8QGKkC9jqSgM-75" value="" style="endArrow=block;endSize=16;endFill=0;html=1;exitX=0.5;exitY=0;exitDx=0;exitDy=0;entryX=0.5;entryY=1;entryDx=0;entryDy=0;" parent="1" source="_agyN7dg8QGKkC9jqSgM-11" target="_agyN7dg8QGKkC9jqSgM-10" edge="1">
          <mxGeometry width="160" relative="1" as="geometry">
            <mxPoint x="160" y="119.5" as="sourcePoint"/>
            <mxPoint x="320" y="119.5" as="targetPoint"/>
            <Array as="points">
              <mxPoint x="135" y="160"/>
              <mxPoint x="320" y="160"/>
              <mxPoint x="455" y="160"/>
            </Array>
          </mxGeometry>
        </mxCell>
        <mxCell id="_agyN7dg8QGKkC9jqSgM-76" value="StereoVision" style="html=1;" parent="1" vertex="1">
          <mxGeometry x="160" y="310" width="110" height="50" as="geometry"/>
        </mxCell>
        <mxCell id="_agyN7dg8QGKkC9jqSgM-78" value="" style="endArrow=block;endSize=16;endFill=0;html=1;exitX=0.5;exitY=0;exitDx=0;exitDy=0;entryX=0.5;entryY=1;entryDx=0;entryDy=0;" parent="1" source="_agyN7dg8QGKkC9jqSgM-13" edge="1">
          <mxGeometry width="160" relative="1" as="geometry">
            <mxPoint x="135" y="240" as="sourcePoint"/>
            <mxPoint x="455" y="120" as="targetPoint"/>
            <Array as="points">
              <mxPoint x="295" y="160"/>
              <mxPoint x="320" y="160"/>
              <mxPoint x="455" y="160"/>
            </Array>
          </mxGeometry>
        </mxCell>
        <mxCell id="_agyN7dg8QGKkC9jqSgM-79" value="" style="endArrow=block;endSize=16;endFill=0;html=1;exitX=0.5;exitY=0;exitDx=0;exitDy=0;entryX=0.5;entryY=1;entryDx=0;entryDy=0;" parent="1" source="_agyN7dg8QGKkC9jqSgM-12" target="_agyN7dg8QGKkC9jqSgM-10" edge="1">
          <mxGeometry width="160" relative="1" as="geometry">
            <mxPoint x="305" y="250" as="sourcePoint"/>
            <mxPoint x="465" y="130" as="targetPoint"/>
            <Array as="points">
              <mxPoint x="455" y="170"/>
            </Array>
          </mxGeometry>
        </mxCell>
        <mxCell id="_agyN7dg8QGKkC9jqSgM-80" value="" style="endArrow=block;endSize=16;endFill=0;html=1;entryX=0.5;entryY=1;entryDx=0;entryDy=0;exitX=0.5;exitY=0;exitDx=0;exitDy=0;" parent="1" source="_agyN7dg8QGKkC9jqSgM-76" target="_agyN7dg8QGKkC9jqSgM-10" edge="1">
          <mxGeometry width="160" relative="1" as="geometry">
            <mxPoint x="370" y="240" as="sourcePoint"/>
            <mxPoint x="458" y="120" as="targetPoint"/>
            <Array as="points">
              <mxPoint x="215" y="160"/>
              <mxPoint x="455" y="160"/>
            </Array>
          </mxGeometry>
        </mxCell>
        <mxCell id="_agyN7dg8QGKkC9jqSgM-81" value="" style="endArrow=block;endSize=16;endFill=0;html=1;entryX=0.5;entryY=1;entryDx=0;entryDy=0;exitX=0.5;exitY=0;exitDx=0;exitDy=0;" parent="1" source="_agyN7dg8QGKkC9jqSgM-27" target="_agyN7dg8QGKkC9jqSgM-10" edge="1">
          <mxGeometry width="160" relative="1" as="geometry">
            <mxPoint x="225" y="320" as="sourcePoint"/>
            <mxPoint x="465" y="130" as="targetPoint"/>
            <Array as="points">
              <mxPoint x="375" y="160"/>
              <mxPoint x="455" y="160"/>
            </Array>
          </mxGeometry>
        </mxCell>
        <mxCell id="_agyN7dg8QGKkC9jqSgM-82" value="SignatureHistrogram" style="html=1;" parent="1" vertex="1">
          <mxGeometry x="560" y="240" width="150" height="50" as="geometry"/>
        </mxCell>
        <mxCell id="_agyN7dg8QGKkC9jqSgM-83" value="MoveFrame" style="html=1;" parent="1" vertex="1">
          <mxGeometry x="480" y="310" width="110" height="50" as="geometry"/>
        </mxCell>
        <mxCell id="_agyN7dg8QGKkC9jqSgM-84" value="" style="endArrow=block;endSize=16;endFill=0;html=1;exitX=0.5;exitY=0;exitDx=0;exitDy=0;entryX=0.5;entryY=1;entryDx=0;entryDy=0;" parent="1" source="_agyN7dg8QGKkC9jqSgM-83" target="_agyN7dg8QGKkC9jqSgM-10" edge="1">
          <mxGeometry width="160" relative="1" as="geometry">
            <mxPoint x="465" y="250" as="sourcePoint"/>
            <mxPoint x="450" y="120" as="targetPoint"/>
            <Array as="points">
              <mxPoint x="535" y="160"/>
              <mxPoint x="455" y="160"/>
            </Array>
          </mxGeometry>
        </mxCell>
        <mxCell id="_agyN7dg8QGKkC9jqSgM-85" value="" style="endArrow=block;endSize=16;endFill=0;html=1;exitX=0.5;exitY=0;exitDx=0;exitDy=0;entryX=0.5;entryY=1;entryDx=0;entryDy=0;" parent="1" source="_agyN7dg8QGKkC9jqSgM-82" target="_agyN7dg8QGKkC9jqSgM-10" edge="1">
          <mxGeometry width="160" relative="1" as="geometry">
            <mxPoint x="545" y="320" as="sourcePoint"/>
            <mxPoint x="465" y="130" as="targetPoint"/>
            <Array as="points">
              <mxPoint x="635" y="160"/>
              <mxPoint x="455" y="160"/>
            </Array>
          </mxGeometry>
        </mxCell>
      </root>
    </mxGraphModel>
  </diagram>
</mxfile>
